# Blender v2.78 (sub 0) OBJ File: 'grassblock.blend'
# www.blender.org
mtllib grassblock.mtl
o Cube
v 0.500000 -0.500000 -0.500000
v 0.500000 -0.500000 0.500000
v -0.500000 -0.500000 0.500000
v -0.500000 -0.500000 -0.500000
v 0.500000 0.500000 -0.499999
v 0.499999 0.500000 0.500000
v -0.500000 0.500000 0.500000
v -0.500000 0.500000 -0.500000
v 0.500000 -0.500000 -0.500000
v 0.500000 -0.500000 -0.500000
v 0.500000 -0.500000 0.500000
v 0.500000 -0.500000 0.500000
v -0.500000 -0.500000 -0.500000
v -0.500000 -0.500000 -0.500000
v 0.500000 0.500000 -0.499999
v 0.500000 0.500000 -0.499999
v -0.500000 -0.500000 0.500000
v -0.500000 -0.500000 0.500000
v 0.499999 0.500000 0.500000
v 0.499999 0.500000 0.500000
v -0.500000 0.500000 0.500000
v -0.500000 0.500000 0.500000
v -0.500000 0.500000 -0.500000
v -0.500000 0.500000 -0.500000
vt 1.0000 0.5000
vt 0.5000 1.0000
vt 0.5000 0.5000
vt 0.5000 0.5000
vt 0.0000 0.0000
vt 0.5000 0.0000
vt 0.5000 0.9970
vt 0.0000 0.5000
vt 0.5000 0.5007
vt 0.0000 1.0000
vt 0.5000 0.5000
vt 0.0000 0.5000
vt 0.5000 0.5000
vt 0.0000 1.0000
vt 0.0000 0.5000
vt 0.5000 0.5000
vt 0.0000 1.0000
vt 0.5000 1.0000
vt 1.0000 0.9961
vt 0.0000 0.5000
vt 0.0000 1.0000
vt 0.5000 1.0000
vt 0.5000 1.0000
vt 0.0000 0.5000
vn 0.0000 -1.0000 0.0000
vn 0.0000 1.0000 0.0000
vn 1.0000 -0.0000 0.0000
vn -0.0000 -0.0000 1.0000
vn -1.0000 -0.0000 -0.0000
vn 0.0000 0.0000 -1.0000
usemtl Material
s off
f 11/1/1 13/2/1 9/3/1
f 24/4/2 20/5/2 16/6/2
f 15/7/3 2/8/3 10/9/3
f 19/10/4 17/11/4 12/12/4
f 18/13/5 23/14/5 14/15/5
f 1/16/6 8/17/6 5/18/6
f 11/1/1 3/19/1 13/2/1
f 24/4/2 22/20/2 20/5/2
f 15/7/3 6/21/3 2/8/3
f 19/10/4 21/22/4 17/11/4
f 18/13/5 7/23/5 23/14/5
f 1/16/6 4/24/6 8/17/6
