# Blender v2.78 (sub 0) OBJ File: 'metal-obelisk.blend'
# www.blender.org
mtllib metal-obelisk.mtl
o Cube
v 0.050000 0.000358 -0.050000
v 0.050000 1.000000 -0.050000
v 0.150000 0.333333 -0.050000
v 0.050000 0.333333 0.150000
v -0.150000 0.333333 -0.050000
v 0.050000 0.666667 -0.150000
v -0.050000 0.000358 0.050000
v -0.050000 1.000000 0.050000
v 0.150000 0.666667 0.050000
v -0.050000 0.666667 0.150000
v -0.150000 0.666667 0.050000
v -0.050000 0.333333 -0.150000
v -0.000000 0.500000 0.150000
v 0.000000 0.500000 -0.150000
v 0.125000 0.048977 -0.025000
v 0.000000 0.048977 -0.125000
v 0.125000 0.500000 -0.125000
v -0.000000 0.048977 0.125000
v 0.125000 0.500000 0.125000
v -0.125000 0.048977 -0.000000
v -0.125000 0.583333 0.125000
v -0.125000 0.416667 -0.125000
v 0.125000 0.912456 0.000000
v 0.025000 0.912456 -0.125000
v -0.025000 0.912456 0.125000
v -0.125000 0.912456 0.025000
v 0.000000 0.000358 -0.000000
v -0.000000 1.000000 0.000000
v 0.150000 0.500000 0.000000
v -0.150000 0.500000 0.000000
v 0.087500 0.121904 -0.118750
v 0.090000 0.891041 0.110000
v -0.094444 0.868834 0.094444
v -0.108333 0.888662 -0.108333
v 0.110000 0.078148 0.090000
v -0.087500 0.061131 -0.087500
v 0.118750 0.858920 -0.087500
v -0.110000 0.117042 0.110000
v 0.050000 0.000358 -0.050000
v 0.050000 0.000358 -0.050000
v 0.000000 0.000358 -0.000000
v 0.000000 0.048977 -0.125000
v 0.000000 0.048977 -0.125000
v 0.000000 0.048977 -0.125000
v 0.125000 0.048977 -0.025000
v 0.125000 0.048977 -0.025000
v 0.125000 0.048977 -0.025000
v 0.050000 1.000000 -0.050000
v 0.050000 1.000000 -0.050000
v -0.000000 1.000000 0.000000
v 0.125000 0.912456 0.000000
v 0.125000 0.912456 0.000000
v 0.125000 0.912456 0.000000
v 0.025000 0.912456 -0.125000
v 0.025000 0.912456 -0.125000
v 0.025000 0.912456 -0.125000
v -0.000000 0.048977 0.125000
v -0.000000 0.048977 0.125000
v -0.000000 0.048977 0.125000
v -0.125000 0.048977 -0.000000
v -0.125000 0.048977 -0.000000
v -0.125000 0.048977 -0.000000
v -0.050000 0.000358 0.050000
v -0.050000 0.000358 0.050000
v -0.050000 1.000000 0.050000
v -0.050000 1.000000 0.050000
v -0.125000 0.912456 0.025000
v -0.125000 0.912456 0.025000
v -0.025000 0.912456 0.125000
v -0.025000 0.912456 0.125000
v 0.087500 0.121904 -0.118750
v 0.087500 0.121904 -0.118750
v 0.110000 0.078148 0.090000
v 0.110000 0.078148 0.090000
v -0.087500 0.061131 -0.087500
v -0.087500 0.061131 -0.087500
v 0.125000 0.500000 -0.125000
v 0.118750 0.858920 -0.087500
v 0.118750 0.858920 -0.087500
v -0.110000 0.117042 0.110000
v -0.110000 0.117042 0.110000
v 0.125000 0.500000 0.125000
v 0.090000 0.891041 0.110000
v 0.090000 0.891041 0.110000
v -0.125000 0.583333 0.125000
v -0.125000 0.416667 -0.125000
v -0.108333 0.888662 -0.108333
v -0.108333 0.888662 -0.108333
vt 0.5000 0.0000
vt 0.5000 0.5000
vt 0.3333 0.3333
vt 0.5000 0.5000
vt 0.0000 0.5000
vt 0.3333 0.3333
vt 0.3333 0.3333
vt 0.0000 0.0000
vt 0.5000 0.0000
vt 0.5000 0.0000
vt 0.5000 0.5000
vt 0.3333 0.3333
vt 0.5000 0.5000
vt 0.0000 0.5000
vt 0.3333 0.3333
vt 0.3333 0.3333
vt 0.0000 0.0000
vt 0.5000 0.0000
vt 0.5000 0.0000
vt 0.5000 0.5000
vt 0.3333 0.3333
vt 0.1250 0.8750
vt 0.0000 0.5000
vt 0.0000 0.0000
vt 0.5000 0.0000
vt 0.5000 0.5000
vt 0.3333 0.3333
vt 0.1250 0.8750
vt 0.0000 0.5000
vt 0.0000 0.0000
vt 0.3333 0.6667
vt 0.1250 0.1250
vt 0.5000 0.5000
vt 0.5000 1.0000
vt 0.1250 0.8750
vt 0.0000 0.5000
vt 0.5000 0.0000
vt 0.5000 0.5000
vt 0.3333 0.3333
vt 0.1250 0.8750
vt 0.0000 0.5000
vt 0.0000 0.0000
vt 1.0000 0.5000
vt 0.6667 0.6667
vt 0.6667 0.6667
vt 1.0000 1.0000
vt 0.5000 1.0000
vt 0.5000 1.0000
vt 0.6667 0.6667
vt 1.0000 0.5000
vt 0.6667 0.6667
vt 0.6667 0.6667
vt 1.0000 1.0000
vt 0.5000 1.0000
vt 0.5000 1.0000
vt 0.6667 0.6667
vt 0.6667 0.6667
vt 0.8750 0.1250
vt 1.0000 0.5000
vt 1.0000 1.0000
vt 0.5000 1.0000
vt 0.6667 0.6667
vt 0.8750 0.1250
vt 1.0000 0.5000
vt 0.5000 1.0000
vt 0.5000 0.0000
vt 0.6667 0.3333
vt 1.0000 0.0000
vt 1.0000 0.5000
vt 0.8750 0.8750
vt 0.6667 0.6667
vt 0.8750 0.1250
vt 1.0000 0.5000
vt 1.0000 1.0000
vt 0.5000 1.0000
vt 0.8750 0.1250
vt 0.1250 0.8750
vt 0.0000 0.5000
vt 0.8750 0.1250
vt 0.1250 0.8750
vt 0.0000 0.5000
vt 0.0000 0.5000
vt 0.0000 0.5000
vt 0.0000 0.5000
vt 0.0000 0.5000
vt 1.0000 0.5000
vt 1.0000 0.5000
vt 1.0000 0.5000
vt 1.0000 0.5000
vt 1.0000 0.5000
vn 0.4006 -0.8240 0.4006
vn -0.3408 -0.8762 -0.3408
vn 0.5574 -0.5323 -0.6371
vn -0.5501 0.6283 -0.5501
vn 0.4976 0.7105 0.4976
vn 0.5417 0.4523 -0.7085
vn 0.9789 0.0587 -0.1958
vn 0.9863 -0.0738 0.1474
vn 0.8631 -0.0938 -0.4962
vn 0.1958 0.0587 0.9789
vn -0.1693 -0.0567 0.9839
vn 0.4880 -0.0894 0.8682
vn -0.9832 -0.0525 0.1749
vn -0.9676 0.0726 -0.2419
vn -0.9009 -0.1508 -0.4070
vn 0.1958 -0.0587 -0.9789
vn -0.1387 0.0862 -0.9866
vn 0.5046 0.0984 -0.8577
vn 0.3408 -0.8762 0.3408
vn -0.6775 -0.5806 0.4516
vn -0.5762 0.4306 0.6947
vn 0.5501 0.6283 0.5501
vn 0.9901 0.0768 -0.1177
vn 0.8603 0.0962 0.5006
vn 0.9789 -0.0587 0.1958
vn 0.1445 0.0856 0.9858
vn -0.4520 0.1426 0.8806
vn -0.2419 -0.0726 0.9676
vn -0.9676 -0.0726 0.2419
vn -0.8723 0.1365 0.4695
vn -0.9818 0.0546 -0.1819
vn 0.1249 -0.0651 -0.9900
vn -0.4501 -0.1405 -0.8819
vn -0.2419 0.0726 -0.9676
vn 0.3957 -0.8766 0.2740
vn -0.2739 -0.8963 -0.3486
vn 0.4972 -0.5383 -0.6804
vn -0.2128 0.7798 -0.5887
vn 0.5428 0.7750 0.3236
vn 0.8005 0.4840 -0.3533
vn 0.9799 0.0375 -0.1960
vn 0.9819 -0.0544 0.1814
vn 0.8873 -0.1172 -0.4461
vn 0.1958 0.0551 0.9791
vn -0.1749 -0.0525 0.9832
vn 0.3339 -0.1407 0.9321
vn -0.9839 -0.0567 0.1693
vn -0.9739 0.0423 -0.2230
vn -0.8819 -0.1405 -0.4501
vn 0.1960 -0.0356 -0.9800
vn -0.1819 0.0546 -0.9818
vn 0.4334 0.1347 -0.8911
vn -0.4516 -0.5806 0.6775
vn -0.3486 -0.8963 -0.2739
vn -0.5887 0.7798 -0.2128
vn -0.6947 0.4306 0.5762
vn 0.2215 0.7774 0.5887
vn 0.9863 0.0474 -0.1579
vn 0.9309 0.1613 0.3276
vn 0.9793 -0.0511 0.1959
vn 0.1891 0.0567 0.9803
vn -0.4695 0.1365 0.8723
vn -0.2206 -0.0384 0.9746
vn -0.9746 -0.0384 0.2206
vn -0.8806 0.1426 0.4520
vn -0.9866 0.0862 -0.1387
vn 0.1535 -0.0461 -0.9871
vn -0.4070 -0.1508 -0.9009
vn -0.2230 0.0423 -0.9739
usemtl Material
s off
f 45/1/1 41/2/1 39/3/1
f 27/4/2 42/5/2 40/6/2
f 1/7/3 72/8/3 47/9/3
f 54/10/4 50/11/4 48/12/4
f 28/13/5 51/14/5 49/15/5
f 2/16/6 79/17/6 56/18/6
f 77/19/7 29/20/7 3/21/7
f 3/21/8 35/22/8 46/23/8
f 3/21/9 31/24/9 77/19/9
f 82/25/10 13/26/10 4/27/10
f 4/27/11 80/28/11 57/29/11
f 4/27/12 74/30/12 82/25/12
f 5/31/13 81/32/13 30/33/13
f 30/33/14 86/34/14 5/31/14
f 5/31/15 76/35/15 62/36/15
f 17/37/16 14/38/16 6/39/16
f 6/39/17 87/40/17 55/41/17
f 6/39/18 37/42/18 17/37/18
f 41/2/19 58/43/19 63/44/19
f 64/45/20 38/46/20 61/47/20
f 20/48/2 27/4/2 7/49/2
f 50/11/4 67/50/4 65/51/4
f 66/52/21 33/53/21 69/54/21
f 25/55/22 28/13/22 8/56/22
f 9/57/23 78/58/23 52/59/23
f 9/57/24 32/60/24 19/61/24
f 19/61/25 29/20/25 9/57/25
f 10/62/26 83/63/26 70/64/26
f 10/62/27 33/53/27 85/65/27
f 85/65/28 13/26/28 10/62/28
f 30/33/29 21/66/29 11/67/29
f 11/67/30 33/68/30 68/69/30
f 11/67/31 88/70/31 30/33/31
f 12/71/32 71/72/32 43/73/32
f 12/71/33 36/74/33 22/75/33
f 22/75/34 14/38/34 12/71/34
f 45/1/35 73/76/35 41/2/35
f 27/4/36 75/77/36 42/5/36
f 1/7/37 44/78/37 72/8/37
f 54/10/38 34/79/38 50/11/38
f 28/13/39 84/80/39 51/14/39
f 2/16/40 53/81/40 79/17/40
f 77/19/41 78/58/41 29/20/41
f 3/21/42 29/20/42 35/22/42
f 3/21/43 15/82/43 31/24/43
f 82/25/44 83/63/44 13/26/44
f 4/27/45 13/26/45 80/28/45
f 4/27/46 59/83/46 74/30/46
f 5/31/47 60/84/47 81/32/47
f 30/33/48 88/70/48 86/34/48
f 5/31/49 86/34/49 76/35/49
f 17/37/50 71/72/50 14/38/50
f 6/39/51 14/38/51 87/40/51
f 6/39/52 24/85/52 37/42/52
f 41/2/19 73/76/19 58/43/19
f 64/45/53 18/86/53 38/46/53
f 20/48/54 75/77/54 27/4/54
f 50/11/55 34/79/55 67/50/55
f 66/52/56 68/69/56 33/53/56
f 25/55/57 84/80/57 28/13/57
f 9/57/58 29/20/58 78/58/58
f 9/57/59 23/87/59 32/60/59
f 19/61/60 35/22/60 29/20/60
f 10/62/61 13/26/61 83/63/61
f 10/62/62 69/88/62 33/53/62
f 85/65/63 80/28/63 13/26/63
f 30/33/64 81/32/64 21/66/64
f 11/67/65 21/66/65 33/68/65
f 11/67/66 26/89/66 88/70/66
f 12/71/67 14/38/67 71/72/67
f 12/71/68 16/90/68 36/74/68
f 22/75/69 87/40/69 14/38/69
